<?xml version="1.0" encoding="UTF-8"?>
<svg width="700pt" height="700pt" version="1.1" viewBox="0 0 700 700" xmlns="http://www.w3.org/2000/svg" xmlns:xlink="http://www.w3.org/1999/xlink" fill="rgb(255,255,255)">
 <defs>
  <symbol id="m" overflow="visible">
   <path d="m29.312-1.75c-1.5117 0.78125-3.0898 1.3711-4.7344 1.7656-1.6367 0.40625-3.3398 0.60938-5.1094 0.60938-5.3125 0-9.5273-1.4844-12.641-4.4531-3.1055-2.9688-4.6562-7-4.6562-12.094s1.5508-9.125 4.6562-12.094c3.1133-2.9688 7.3281-4.4531 12.641-4.4531 1.7695 0 3.4727 0.19922 5.1094 0.59375 1.6445 0.39844 3.2227 0.99219 4.7344 1.7812v6.5938c-1.5312-1.0391-3.0391-1.8008-4.5156-2.2812-1.4805-0.48828-3.0391-0.73438-4.6719-0.73438-2.9375 0-5.2461 0.94531-6.9219 2.8281-1.6797 1.875-2.5156 4.4648-2.5156 7.7656 0 3.293 0.83594 5.8828 2.5156 7.7656 1.6758 1.875 3.9844 2.8125 6.9219 2.8125 1.6328 0 3.1914-0.23828 4.6719-0.71875 1.4766-0.48828 2.9844-1.2539 4.5156-2.2969z"/>
  </symbol>
  <symbol id="h" overflow="visible">
   <path d="m21.453-17.406c-0.67969-0.3125-1.3516-0.53906-2.0156-0.6875-0.65625-0.15625-1.3203-0.23438-1.9844-0.23438-1.9688 0-3.4844 0.63281-4.5469 1.8906-1.0547 1.2617-1.5781 3.0703-1.5781 5.4219v11.016h-7.6562v-23.922h7.6562v3.9219c0.97656-1.5625 2.1016-2.7031 3.375-3.4219 1.2812-0.71875 2.8125-1.0781 4.5938-1.0781 0.25 0 0.52344 0.011719 0.82812 0.03125 0.30078 0.023438 0.73438 0.070312 1.2969 0.14062z"/>
  </symbol>
  <symbol id="a" overflow="visible">
   <path d="m27.562-12.031v2.1875h-17.891c0.1875 1.793 0.83203 3.1367 1.9375 4.0312 1.1133 0.89844 2.6719 1.3438 4.6719 1.3438 1.6016 0 3.25-0.23438 4.9375-0.70312 1.6875-0.47656 3.4219-1.2031 5.2031-2.1719v5.8906c-1.8047 0.6875-3.6094 1.2031-5.4219 1.5469-1.8125 0.35156-3.6211 0.53125-5.4219 0.53125-4.3359 0-7.7031-1.0977-10.109-3.2969-2.3984-2.207-3.5938-5.2969-3.5938-9.2656 0-3.9062 1.1758-6.9727 3.5312-9.2031 2.3633-2.2383 5.6094-3.3594 9.7344-3.3594 3.7578 0 6.7695 1.1367 9.0312 3.4062 2.2578 2.2617 3.3906 5.2812 3.3906 9.0625zm-7.8594-2.5312c0-1.457-0.42969-2.6289-1.2812-3.5156-0.84375-0.89453-1.9492-1.3438-3.3125-1.3438-1.4922 0-2.6992 0.41797-3.625 1.25-0.91797 0.83594-1.4922 2.0391-1.7188 3.6094z"/>
  </symbol>
  <symbol id="b" overflow="visible">
   <path d="m14.391-10.766c-1.5938 0-2.793 0.27344-3.5938 0.8125-0.80469 0.54297-1.2031 1.3398-1.2031 2.3906 0 0.96875 0.32031 1.7305 0.96875 2.2812 0.64453 0.54297 1.5469 0.8125 2.7031 0.8125 1.4375 0 2.6445-0.51562 3.625-1.5469 0.98828-1.0312 1.4844-2.3203 1.4844-3.875v-0.875zm11.688-2.8906v13.656h-7.7031v-3.5469c-1.0312 1.4492-2.1875 2.5078-3.4688 3.1719s-2.8398 1-4.6719 1c-2.4805 0-4.4961-0.72266-6.0469-2.1719-1.543-1.4453-2.3125-3.3203-2.3125-5.625 0-2.8125 0.96094-4.8672 2.8906-6.1719 1.9375-1.3125 4.9688-1.9688 9.0938-1.9688h4.5156v-0.60938c0-1.207-0.48047-2.0938-1.4375-2.6562-0.94922-0.5625-2.4375-0.84375-4.4688-0.84375-1.6367 0-3.1562 0.16797-4.5625 0.5-1.4062 0.32422-2.7188 0.8125-3.9375 1.4688v-5.8281c1.6445-0.40625 3.2891-0.70703 4.9375-0.90625 1.6562-0.20703 3.3047-0.3125 4.9531-0.3125 4.3203 0 7.4375 0.85547 9.3438 2.5625 1.9141 1.6992 2.875 4.4609 2.875 8.2812z"/>
  </symbol>
  <symbol id="g" overflow="visible">
   <path d="m12.031-30.719v6.7969h7.875v5.4688h-7.875v10.141c0 1.1172 0.21875 1.8711 0.65625 2.2656 0.4375 0.38672 1.3125 0.57812 2.625 0.57812h3.9375v5.4688h-6.5625c-3.0234 0-5.1641-0.62891-6.4219-1.8906-1.2617-1.2578-1.8906-3.3984-1.8906-6.4219v-10.141h-3.7969v-5.4688h3.7969v-6.7969z"/>
  </symbol>
  <symbol id="f" overflow="visible">
   <path d="m19.953-20.422v-12.812h7.6875v33.234h-7.6875v-3.4531c-1.0547 1.4062-2.2148 2.4375-3.4844 3.0938-1.2734 0.65625-2.7422 0.98438-4.4062 0.98438-2.9492 0-5.3711-1.1719-7.2656-3.5156-1.8867-2.3438-2.8281-5.3594-2.8281-9.0469s0.94141-6.7031 2.8281-9.0469c1.8945-2.3438 4.3164-3.5156 7.2656-3.5156 1.6562 0 3.1172 0.33594 4.3906 1 1.2812 0.65625 2.4453 1.6836 3.5 3.0781zm-5.0469 15.484c1.6445 0 2.8945-0.59766 3.75-1.7969 0.86328-1.1953 1.2969-2.9297 1.2969-5.2031 0-2.2812-0.43359-4.0195-1.2969-5.2188-0.85547-1.1953-2.1055-1.7969-3.75-1.7969-1.625 0-2.8711 0.60156-3.7344 1.7969-0.85547 1.1992-1.2812 2.9375-1.2812 5.2188 0 2.2734 0.42578 4.0078 1.2812 5.2031 0.86328 1.1992 2.1094 1.7969 3.7344 1.7969z"/>
  </symbol>
  <symbol id="e" overflow="visible">
   <path d="m16.406-4.9375c1.6328 0 2.8828-0.59766 3.75-1.7969 0.86328-1.1953 1.2969-2.9297 1.2969-5.2031 0-2.2812-0.43359-4.0195-1.2969-5.2188-0.86719-1.1953-2.1172-1.7969-3.75-1.7969-1.6367 0-2.8906 0.60547-3.7656 1.8125-0.875 1.1992-1.3125 2.9336-1.3125 5.2031 0 2.2617 0.4375 3.9961 1.3125 5.2031 0.875 1.1992 2.1289 1.7969 3.7656 1.7969zm-5.0781-15.484c1.0508-1.3945 2.2188-2.4219 3.5-3.0781 1.2812-0.66406 2.7539-1 4.4219-1 2.9453 0 5.3672 1.1719 7.2656 3.5156 1.8945 2.3438 2.8438 5.3594 2.8438 9.0469s-0.94922 6.7031-2.8438 9.0469c-1.8984 2.3438-4.3203 3.5156-7.2656 3.5156-1.668 0-3.1406-0.33594-4.4219-1s-2.4492-1.6914-3.5-3.0781v3.4531h-7.6562v-33.234h7.6562z"/>
  </symbol>
  <symbol id="d" overflow="visible">
   <path d="m0.53125-23.922h7.6562l6.4219 16.234 5.4688-16.234h7.6562l-10.062 26.188c-1.0117 2.6641-2.1953 4.5234-3.5469 5.5781-1.3438 1.0625-3.1211 1.5938-5.3281 1.5938h-4.4219v-5.0156h2.3906c1.3008 0 2.2422-0.21094 2.8281-0.625 0.59375-0.40625 1.0547-1.1484 1.3906-2.2188l0.20312-0.65625z"/>
  </symbol>
  <symbol id="c" overflow="visible">
   <path d="m23-23.172v6.2344c-1.0312-0.71875-2.0742-1.2422-3.125-1.5781-1.043-0.34375-2.125-0.51562-3.25-0.51562-2.1367 0-3.8047 0.625-5 1.875-1.1875 1.2422-1.7812 2.9805-1.7812 5.2188 0 2.2305 0.59375 3.9688 1.7812 5.2188 1.1953 1.25 2.8633 1.875 5 1.875 1.1953 0 2.332-0.17578 3.4062-0.53125 1.0703-0.36328 2.0625-0.89453 2.9688-1.5938v6.2656c-1.1875 0.4375-2.4023 0.76562-3.6406 0.98438-1.2305 0.22656-2.4648 0.34375-3.7031 0.34375-4.3125 0-7.6875-1.1094-10.125-3.3281s-3.6562-5.2969-3.6562-9.2344c0-3.9453 1.2188-7.0234 3.6562-9.2344 2.4375-2.2188 5.8125-3.3281 10.125-3.3281 1.25 0 2.4844 0.10938 3.7031 0.32812s2.4297 0.55469 3.6406 1z"/>
  </symbol>
  <symbol id="l" overflow="visible">
   <path d="m15.062-19.031c-1.6992 0-2.9961 0.60938-3.8906 1.8281-0.88672 1.2188-1.3281 2.9766-1.3281 5.2656 0 2.293 0.44141 4.0469 1.3281 5.2656 0.89453 1.2188 2.1914 1.8281 3.8906 1.8281 1.6641 0 2.9375-0.60938 3.8125-1.8281 0.88281-1.2188 1.3281-2.9727 1.3281-5.2656 0-2.2891-0.44531-4.0469-1.3281-5.2656-0.875-1.2188-2.1484-1.8281-3.8125-1.8281zm0-5.4688c4.1133 0 7.3281 1.1094 9.6406 3.3281s3.4688 5.2969 3.4688 9.2344c0 3.9297-1.1562 7.0078-3.4688 9.2344-2.3125 2.2188-5.5273 3.3281-9.6406 3.3281-4.1367 0-7.3711-1.1094-9.7031-3.3281-2.3242-2.2266-3.4844-5.3047-3.4844-9.2344 0-3.9375 1.1602-7.0156 3.4844-9.2344 2.332-2.2188 5.5664-3.3281 9.7031-3.3281z"/>
  </symbol>
  <symbol id="k" overflow="visible">
   <path d="m25.844-19.953c0.96875-1.4766 2.1172-2.6016 3.4531-3.375 1.332-0.78125 2.7969-1.1719 4.3906-1.1719 2.75 0 4.8438 0.85156 6.2812 2.5469 1.4375 1.6875 2.1562 4.1523 2.1562 7.3906v14.562h-7.6875v-12.469c0.007812-0.1875 0.019531-0.37891 0.03125-0.57812 0.007812-0.19531 0.015625-0.48438 0.015625-0.85938 0-1.6953-0.25-2.9258-0.75-3.6875-0.5-0.75781-1.3086-1.1406-2.4219-1.1406-1.4492 0-2.5703 0.60156-3.3594 1.7969-0.79297 1.1992-1.2031 2.9297-1.2344 5.1875v11.75h-7.6875v-12.469c0-2.6562-0.23047-4.3633-0.6875-5.125-0.44922-0.75781-1.2578-1.1406-2.4219-1.1406-1.4688 0-2.6055 0.60547-3.4062 1.8125-0.79297 1.1992-1.1875 2.918-1.1875 5.1562v11.766h-7.7031v-23.922h7.7031v3.5c0.9375-1.3516 2.0156-2.3672 3.2344-3.0469 1.2188-0.6875 2.5547-1.0312 4.0156-1.0312 1.6562 0 3.1133 0.40234 4.375 1.2031 1.2695 0.79297 2.2344 1.9062 2.8906 3.3438z"/>
  </symbol>
  <symbol id="j" overflow="visible">
   <path d="m2.5-23.922h20.875v5.3438l-12.609 13.109h12.609v5.4688h-21.406v-5.3438l12.594-13.109h-12.062z"/>
  </symbol>
  <symbol id="i" overflow="visible">
   <path d="m3.6719-33.234h7.6562v33.234h-7.6562z"/>
  </symbol>
 </defs>
 <g>
  <path d="m253.75 157.5c-6.9609 0-13.641 2.7656-18.562 7.6875s-7.6875 11.602-7.6875 18.562 2.7656 13.641 7.6875 18.562 11.602 7.6875 18.562 7.6875 13.641-2.7656 18.562-7.6875 7.6875-11.602 7.6875-18.562-2.7656-13.641-7.6875-18.562-11.602-7.6875-18.562-7.6875zm0 35c-3.5391 0-6.7305-2.1328-8.082-5.4023-1.3555-3.2695-0.60938-7.0312 1.8945-9.5352s6.2656-3.25 9.5352-1.8945c3.2695 1.3516 5.4023 4.543 5.4023 8.082 0 2.3203-0.92188 4.5469-2.5625 6.1875s-3.8672 2.5625-6.1875 2.5625z"/>
  <path d="m210 96.25c0 2.3203 0.92188 4.5469 2.5625 6.1875s3.8672 2.5625 6.1875 2.5625h70c4.832 0 8.75-3.918 8.75-8.75s-3.918-8.75-8.75-8.75h-70c-4.832 0-8.75 3.918-8.75 8.75z"/>
  <path d="m393.75 105c4.832 0 8.75-3.918 8.75-8.75s-3.918-8.75-8.75-8.75h-70c-4.832 0-8.75 3.918-8.75 8.75s3.918 8.75 8.75 8.75z"/>
  <path d="m148.75 210c6.9609 0 13.641-2.7656 18.562-7.6875s7.6875-11.602 7.6875-18.562-2.7656-13.641-7.6875-18.562-11.602-7.6875-18.562-7.6875-13.641 2.7656-18.562 7.6875-7.6875 11.602-7.6875 18.562 2.7656 13.641 7.6875 18.562 11.602 7.6875 18.562 7.6875zm0-35c3.5391 0 6.7305 2.1328 8.082 5.4023 1.3555 3.2695 0.60938 7.0312-1.8945 9.5352s-6.2656 3.25-9.5352 1.8945c-3.2695-1.3516-5.4023-4.543-5.4023-8.082 0-4.832 3.918-8.75 8.75-8.75z"/>
  <path d="m603.75 227.5h-78.75v-131.25c0-11.602-4.6094-22.73-12.812-30.938-8.207-8.2031-19.336-12.812-30.938-12.812h-8.75v-8.75c0-6.9609-2.7656-13.641-7.6875-18.562s-11.602-7.6875-18.562-7.6875-13.641 2.7656-18.562 7.6875-7.6875 11.602-7.6875 18.562v8.75h-175c-4.832 0-8.75 3.918-8.75 8.75s3.918 8.75 8.75 8.75h175v8.75c0 9.3789 5.0039 18.043 13.125 22.734 8.1211 4.6875 18.129 4.6875 26.25 0 8.1211-4.6914 13.125-13.355 13.125-22.734v-8.75h8.75c6.9609 0 13.641 2.7656 18.562 7.6875s7.6875 11.602 7.6875 18.562v26.25h-402.5v-26.25c0-6.9609 2.7656-13.641 7.6875-18.562s11.602-7.6875 18.562-7.6875h8.75v8.75c0 9.3789 5.0039 18.043 13.125 22.734 8.1211 4.6875 18.129 4.6875 26.25 0 8.1211-4.6914 13.125-13.355 13.125-22.734v-8.75h17.5c4.832 0 8.75-3.918 8.75-8.75s-3.918-8.75-8.75-8.75h-17.5v-8.75c0-6.9609-2.7656-13.641-7.6875-18.562s-11.602-7.6875-18.562-7.6875-13.641 2.7656-18.562 7.6875-7.6875 11.602-7.6875 18.562v8.75h-8.75c-11.602 0-22.73 4.6094-30.938 12.812-8.2031 8.207-12.812 19.336-12.812 30.938v385c0 2.3203 0.92188 4.5469 2.5625 6.1875s3.8672 2.5625 6.1875 2.5625h131.25c4.832 0 8.75-3.918 8.75-8.75s-3.918-8.75-8.75-8.75h-122.5v-17.5h175v17.5h-17.5c-4.832 0-8.75 3.918-8.75 8.75s3.918 8.75 8.75 8.75h17.5v43.75c0 2.3203 0.92188 4.5469 2.5625 6.1875s3.8672 2.5625 6.1875 2.5625h245c20.887 0 40.918-8.2969 55.684-23.066 14.77-14.766 23.066-34.797 23.066-55.684v-166.25c0-4.832-3.918-8.75-8.75-8.75s-8.75 3.918-8.75 8.75v166.25c0 16.246-6.4531 31.824-17.941 43.309-11.484 11.488-27.062 17.941-43.309 17.941h-236.25v-280h35c4.832 0 8.75-3.918 8.75-8.75s-3.918-8.75-8.75-8.75h-17.5v-87.5h87.5v17.5h-43.75c-6.9609 0-13.641 2.7656-18.562 7.6875s-7.6875 11.602-7.6875 18.562 2.7656 13.641 7.6875 18.562 11.602 7.6875 18.562 7.6875h43.75v17.5h-35c-4.832 0-8.75 3.918-8.75 8.75s3.918 8.75 8.75 8.75h227.5v17.5c0 4.832 3.918 8.75 8.75 8.75s8.75-3.918 8.75-8.75v-26.25c0-2.3203-0.92188-4.5469-2.5625-6.1875s-3.8672-2.5625-6.1875-2.5625zm-148.75-148.75c0 4.832-3.918 8.75-8.75 8.75s-8.75-3.918-8.75-8.75v-35c0-4.832 3.918-8.75 8.75-8.75 2.3516 0.03125 4.5898 1.0117 6.2109 2.7109 1.6562 1.5703 2.5742 3.7617 2.5391 6.0391zm-297.5-35c0-4.832 3.918-8.75 8.75-8.75 2.3516 0.03125 4.5898 1.0117 6.2109 2.7109 1.6562 1.5703 2.5742 3.7617 2.5391 6.0391v35c0 4.832-3.918 8.75-8.75 8.75s-8.75-3.918-8.75-8.75zm43.75 358.75h-96.25v-17.5h175v17.5zm78.75-87.5v17.5h-70v-17.5zm0 52.5h-70v-17.5h70zm-175 0v-17.5h87.5v17.5zm87.5-35h-87.5v-17.5h87.5zm87.5-35h-175v-17.5h175zm-175-35v-17.5h87.5v17.5zm87.5-122.5v87.5h-87.5v-87.5zm-87.5 280h87.5v17.5h-87.5zm105 17.5v-17.5h70v17.5zm70-175h-70v-17.5h70zm8.75-35h-78.75v-87.5h87.5v87.5zm131.25-87.5h87.5v17.5h-87.5zm-61.25 52.5c-4.832 0-8.75-3.918-8.75-8.75 0.03125-2.3516 1.0117-4.5898 2.7109-6.2109 1.5703-1.6562 3.7617-2.5742 6.0391-2.5391h148.75v17.5zm61.25 35v-17.5h87.5v17.5z"/>
  <path d="m542.5 446.25v-105c0-4.832-3.918-8.75-8.75-8.75s-8.75 3.918-8.75 8.75v105c0 4.832 3.918 8.75 8.75 8.75s8.75-3.918 8.75-8.75z"/>
  <path d="m533.75 507.5c2.3203 0 4.5469-0.92188 6.1875-2.5625s2.5625-3.8672 2.5625-6.1875v-8.75h26.25c2.3203 0 4.5469-0.92188 6.1875-2.5625s2.5625-3.8672 2.5625-6.1875v-175c0-2.3203-0.92188-4.5469-2.5625-6.1875s-3.8672-2.5625-6.1875-2.5625h-26.25v-26.25c0-2.3203-0.92188-4.5469-2.5625-6.1875s-3.8672-2.5625-6.1875-2.5625h-70c-4.832 0-8.75 3.918-8.75 8.75v26.25h-26.25c-4.832 0-8.75 3.918-8.75 8.75v35h-26.25c-11.625 0.003906-22.77 4.6289-30.977 12.863-1.8242 1.8477-3.4648 3.8711-4.8984 6.0352-0.45703 0.60937-0.86719 1.2539-1.2266 1.9258-1.0195 1.5977-1.9258 3.2617-2.7109 4.9883 0 0.69922-0.61328 1.3125-0.875 2.0117-0.89844 2.3359-1.6289 4.7344-2.1875 7.1758h-9.625c-6.9609 0-13.641 2.7656-18.562 7.6875s-7.6875 11.602-7.6875 18.562v78.75c0 6.9609 2.7656 13.641 7.6875 18.562s11.602 7.6875 18.562 7.6875h140c1.6172 0.003906 3.2344-0.17188 4.8125-0.52344h1.3984c1.1055-0.23047 2.1875-0.55078 3.2383-0.96484l1.3984-0.61328h0.003906c1.0352-0.4375 2.0312-0.96484 2.9727-1.5742l1.1367-0.69922c1.2461-0.86719 2.4141-1.832 3.5-2.8867l0.52344-0.61328h0.003906c0.88281-0.90234 1.7031-1.8672 2.4492-2.8867l0.78906-1.3125 1.5742-2.8008 0.52344-1.3984c0.03125-0.29297 0.03125-0.58594 0-0.875h19.426v8.75c0.1875 4.6953 4.0508 8.4023 8.75 8.3984zm-61.25-227.5h52.5v17.5h-52.5zm-78.75 78.75h35c1.6172-0.003906 3.2344 0.17188 4.8125 0.52344h1.3984c1.1055 0.23047 2.1875 0.55078 3.2383 0.96484l1.3984 0.61328h0.003906c1.0352 0.4375 2.0312 0.96484 2.9727 1.5742l1.1367 0.69922c1.2461 0.86719 2.4141 1.832 3.5 2.8867l0.52344 0.61328h0.003906c0.88281 0.90234 1.7031 1.8672 2.4492 2.8867l0.78906 1.3125 1.5742 2.8008 0.52344 1.3984v0.875h-84c0.011719-0.20313 0.011719-0.40625 0-0.60938 0-1.0508 1.0508-2.1016 1.5742-3.1484 0.52344-1.0508 0.52344-1.1367 0.875-1.6641 0.96094-1.5898 2.1094-3.0586 3.4141-4.375 5.0391-4.8633 11.812-7.5078 18.812-7.3516zm78.75 131.25v-70c0-4.832-3.918-8.75-8.75-8.75s-8.75 3.918-8.75 8.75v70h-87.5v-70c0-4.832-3.918-8.75-8.75-8.75s-8.75 3.918-8.75 8.75v70h-8.75c-4.832 0-8.75-3.918-8.75-8.75v-78.75c0-4.832 3.918-8.75 8.75-8.75h140c2.3203 0 4.5469 0.92188 6.1875 2.5625s2.5625 3.8672 2.5625 6.1875v78.75c0 2.3203-0.92188 4.5469-2.5625 6.1875s-3.8672 2.5625-6.1875 2.5625zm35-87.5v-61.25c0-4.832-3.918-8.75-8.75-8.75s-8.75 3.918-8.75 8.75v36.574c-2.8047-1.0195-5.7656-1.5508-8.75-1.5742h-8.75v-35c0-4.832-3.918-8.75-8.75-8.75s-8.75 3.918-8.75 8.75v8.75l-1.1367-0.69922-1.9258-1.2266c-1.5664-1.0195-3.2031-1.9258-4.8984-2.7109l-2.1016-0.96094v-0.003906c-2.332-0.91016-4.7305-1.6406-7.1758-2.1875v-27.211h122.24v157.5h-52.5z"/>
  <use x="70" y="691.25" xlink:href="#m"/>
  <use x="102.109375" y="691.25" xlink:href="#h"/>
  <use x="123.683594" y="691.25" xlink:href="#a"/>
  <use x="153.355469" y="691.25" xlink:href="#b"/>
  <use x="182.878906" y="691.25" xlink:href="#g"/>
  <use x="203.792969" y="691.25" xlink:href="#a"/>
  <use x="233.464844" y="691.25" xlink:href="#f"/>
  <use x="280.011719" y="691.25" xlink:href="#e"/>
  <use x="311.328125" y="691.25" xlink:href="#d"/>
  <use x="355.078125" y="691.25" xlink:href="#c"/>
  <use x="381.015625" y="691.25" xlink:href="#l"/>
  <use x="411.070312" y="691.25" xlink:href="#k"/>
  <use x="456.65625" y="691.25" xlink:href="#j"/>
  <use x="482.121094" y="691.25" xlink:href="#a"/>
  <use x="511.792969" y="691.25" xlink:href="#b"/>
  <use x="541.316406" y="691.25" xlink:href="#i"/>
 </g>
</svg>
