<?xml version="1.0" encoding="UTF-8"?>
<svg width="700pt" height="700pt" version="1.1" viewBox="0 0 700 700" xmlns="http://www.w3.org/2000/svg" xmlns:xlink="http://www.w3.org/1999/xlink" fill="rgb(255,255,255)">
 <defs>
  <symbol id="p" overflow="visible">
   <path d="m29.312-1.75c-1.5117 0.78125-3.0898 1.3711-4.7344 1.7656-1.6367 0.40625-3.3398 0.60938-5.1094 0.60938-5.3125 0-9.5273-1.4844-12.641-4.4531-3.1055-2.9688-4.6562-7-4.6562-12.094s1.5508-9.125 4.6562-12.094c3.1133-2.9688 7.3281-4.4531 12.641-4.4531 1.7695 0 3.4727 0.19922 5.1094 0.59375 1.6445 0.39844 3.2227 0.99219 4.7344 1.7812v6.5938c-1.5312-1.0391-3.0391-1.8008-4.5156-2.2812-1.4805-0.48828-3.0391-0.73438-4.6719-0.73438-2.9375 0-5.2461 0.94531-6.9219 2.8281-1.6797 1.875-2.5156 4.4648-2.5156 7.7656 0 3.293 0.83594 5.8828 2.5156 7.7656 1.6758 1.875 3.9844 2.8125 6.9219 2.8125 1.6328 0 3.1914-0.23828 4.6719-0.71875 1.4766-0.48828 2.9844-1.2539 4.5156-2.2969z"/>
  </symbol>
  <symbol id="c" overflow="visible">
   <path d="m21.453-17.406c-0.67969-0.3125-1.3516-0.53906-2.0156-0.6875-0.65625-0.15625-1.3203-0.23438-1.9844-0.23438-1.9688 0-3.4844 0.63281-4.5469 1.8906-1.0547 1.2617-1.5781 3.0703-1.5781 5.4219v11.016h-7.6562v-23.922h7.6562v3.9219c0.97656-1.5625 2.1016-2.7031 3.375-3.4219 1.2812-0.71875 2.8125-1.0781 4.5938-1.0781 0.25 0 0.52344 0.011719 0.82812 0.03125 0.30078 0.023438 0.73438 0.070312 1.2969 0.14062z"/>
  </symbol>
  <symbol id="a" overflow="visible">
   <path d="m27.562-12.031v2.1875h-17.891c0.1875 1.793 0.83203 3.1367 1.9375 4.0312 1.1133 0.89844 2.6719 1.3438 4.6719 1.3438 1.6016 0 3.25-0.23438 4.9375-0.70312 1.6875-0.47656 3.4219-1.2031 5.2031-2.1719v5.8906c-1.8047 0.6875-3.6094 1.2031-5.4219 1.5469-1.8125 0.35156-3.6211 0.53125-5.4219 0.53125-4.3359 0-7.7031-1.0977-10.109-3.2969-2.3984-2.207-3.5938-5.2969-3.5938-9.2656 0-3.9062 1.1758-6.9727 3.5312-9.2031 2.3633-2.2383 5.6094-3.3594 9.7344-3.3594 3.7578 0 6.7695 1.1367 9.0312 3.4062 2.2578 2.2617 3.3906 5.2812 3.3906 9.0625zm-7.8594-2.5312c0-1.457-0.42969-2.6289-1.2812-3.5156-0.84375-0.89453-1.9492-1.3438-3.3125-1.3438-1.4922 0-2.6992 0.41797-3.625 1.25-0.91797 0.83594-1.4922 2.0391-1.7188 3.6094z"/>
  </symbol>
  <symbol id="i" overflow="visible">
   <path d="m14.391-10.766c-1.5938 0-2.793 0.27344-3.5938 0.8125-0.80469 0.54297-1.2031 1.3398-1.2031 2.3906 0 0.96875 0.32031 1.7305 0.96875 2.2812 0.64453 0.54297 1.5469 0.8125 2.7031 0.8125 1.4375 0 2.6445-0.51562 3.625-1.5469 0.98828-1.0312 1.4844-2.3203 1.4844-3.875v-0.875zm11.688-2.8906v13.656h-7.7031v-3.5469c-1.0312 1.4492-2.1875 2.5078-3.4688 3.1719s-2.8398 1-4.6719 1c-2.4805 0-4.4961-0.72266-6.0469-2.1719-1.543-1.4453-2.3125-3.3203-2.3125-5.625 0-2.8125 0.96094-4.8672 2.8906-6.1719 1.9375-1.3125 4.9688-1.9688 9.0938-1.9688h4.5156v-0.60938c0-1.207-0.48047-2.0938-1.4375-2.6562-0.94922-0.5625-2.4375-0.84375-4.4688-0.84375-1.6367 0-3.1562 0.16797-4.5625 0.5-1.4062 0.32422-2.7188 0.8125-3.9375 1.4688v-5.8281c1.6445-0.40625 3.2891-0.70703 4.9375-0.90625 1.6562-0.20703 3.3047-0.3125 4.9531-0.3125 4.3203 0 7.4375 0.85547 9.3438 2.5625 1.9141 1.6992 2.875 4.4609 2.875 8.2812z"/>
  </symbol>
  <symbol id="b" overflow="visible">
   <path d="m12.031-30.719v6.7969h7.875v5.4688h-7.875v10.141c0 1.1172 0.21875 1.8711 0.65625 2.2656 0.4375 0.38672 1.3125 0.57812 2.625 0.57812h3.9375v5.4688h-6.5625c-3.0234 0-5.1641-0.62891-6.4219-1.8906-1.2617-1.2578-1.8906-3.3984-1.8906-6.4219v-10.141h-3.7969v-5.4688h3.7969v-6.7969z"/>
  </symbol>
  <symbol id="h" overflow="visible">
   <path d="m19.953-20.422v-12.812h7.6875v33.234h-7.6875v-3.4531c-1.0547 1.4062-2.2148 2.4375-3.4844 3.0938-1.2734 0.65625-2.7422 0.98438-4.4062 0.98438-2.9492 0-5.3711-1.1719-7.2656-3.5156-1.8867-2.3438-2.8281-5.3594-2.8281-9.0469s0.94141-6.7031 2.8281-9.0469c1.8945-2.3438 4.3164-3.5156 7.2656-3.5156 1.6562 0 3.1172 0.33594 4.3906 1 1.2812 0.65625 2.4453 1.6836 3.5 3.0781zm-5.0469 15.484c1.6445 0 2.8945-0.59766 3.75-1.7969 0.86328-1.1953 1.2969-2.9297 1.2969-5.2031 0-2.2812-0.43359-4.0195-1.2969-5.2188-0.85547-1.1953-2.1055-1.7969-3.75-1.7969-1.625 0-2.8711 0.60156-3.7344 1.7969-0.85547 1.1992-1.2812 2.9375-1.2812 5.2188 0 2.2734 0.42578 4.0078 1.2812 5.2031 0.86328 1.1992 2.1094 1.7969 3.7344 1.7969z"/>
  </symbol>
  <symbol id="g" overflow="visible">
   <path d="m16.406-4.9375c1.6328 0 2.8828-0.59766 3.75-1.7969 0.86328-1.1953 1.2969-2.9297 1.2969-5.2031 0-2.2812-0.43359-4.0195-1.2969-5.2188-0.86719-1.1953-2.1172-1.7969-3.75-1.7969-1.6367 0-2.8906 0.60547-3.7656 1.8125-0.875 1.1992-1.3125 2.9336-1.3125 5.2031 0 2.2617 0.4375 3.9961 1.3125 5.2031 0.875 1.1992 2.1289 1.7969 3.7656 1.7969zm-5.0781-15.484c1.0508-1.3945 2.2188-2.4219 3.5-3.0781 1.2812-0.66406 2.7539-1 4.4219-1 2.9453 0 5.3672 1.1719 7.2656 3.5156 1.8945 2.3438 2.8438 5.3594 2.8438 9.0469s-0.94922 6.7031-2.8438 9.0469c-1.8984 2.3438-4.3203 3.5156-7.2656 3.5156-1.668 0-3.1406-0.33594-4.4219-1s-2.4492-1.6914-3.5-3.0781v3.4531h-7.6562v-33.234h7.6562z"/>
  </symbol>
  <symbol id="f" overflow="visible">
   <path d="m0.53125-23.922h7.6562l6.4219 16.234 5.4688-16.234h7.6562l-10.062 26.188c-1.0117 2.6641-2.1953 4.5234-3.5469 5.5781-1.3438 1.0625-3.1211 1.5938-5.3281 1.5938h-4.4219v-5.0156h2.3906c1.3008 0 2.2422-0.21094 2.8281-0.625 0.59375-0.40625 1.0547-1.1484 1.3906-2.2188l0.20312-0.65625z"/>
  </symbol>
  <symbol id="e" overflow="visible">
   <path d="m4.0156-31.891h8.2188v11.641l11.859-11.641h9.5469l-15.359 15.094 16.938 16.797h-10.281l-12.703-12.562v12.562h-8.2188z"/>
  </symbol>
  <symbol id="d" overflow="visible">
   <path d="m15.062-19.031c-1.6992 0-2.9961 0.60938-3.8906 1.8281-0.88672 1.2188-1.3281 2.9766-1.3281 5.2656 0 2.293 0.44141 4.0469 1.3281 5.2656 0.89453 1.2188 2.1914 1.8281 3.8906 1.8281 1.6641 0 2.9375-0.60938 3.8125-1.8281 0.88281-1.2188 1.3281-2.9727 1.3281-5.2656 0-2.2891-0.44531-4.0469-1.3281-5.2656-0.875-1.2188-2.1484-1.8281-3.8125-1.8281zm0-5.4688c4.1133 0 7.3281 1.1094 9.6406 3.3281s3.4688 5.2969 3.4688 9.2344c0 3.9297-1.1562 7.0078-3.4688 9.2344-2.3125 2.2188-5.5273 3.3281-9.6406 3.3281-4.1367 0-7.3711-1.1094-9.7031-3.3281-2.3242-2.2266-3.4844-5.3047-3.4844-9.2344 0-3.9375 1.1602-7.0156 3.4844-9.2344 2.332-2.2188 5.5664-3.3281 9.7031-3.3281z"/>
  </symbol>
  <symbol id="o" overflow="visible">
   <path d="m25.844-19.953c0.96875-1.4766 2.1172-2.6016 3.4531-3.375 1.332-0.78125 2.7969-1.1719 4.3906-1.1719 2.75 0 4.8438 0.85156 6.2812 2.5469 1.4375 1.6875 2.1562 4.1523 2.1562 7.3906v14.562h-7.6875v-12.469c0.007812-0.1875 0.019531-0.37891 0.03125-0.57812 0.007812-0.19531 0.015625-0.48438 0.015625-0.85938 0-1.6953-0.25-2.9258-0.75-3.6875-0.5-0.75781-1.3086-1.1406-2.4219-1.1406-1.4492 0-2.5703 0.60156-3.3594 1.7969-0.79297 1.1992-1.2031 2.9297-1.2344 5.1875v11.75h-7.6875v-12.469c0-2.6562-0.23047-4.3633-0.6875-5.125-0.44922-0.75781-1.2578-1.1406-2.4219-1.1406-1.4688 0-2.6055 0.60547-3.4062 1.8125-0.79297 1.1992-1.1875 2.918-1.1875 5.1562v11.766h-7.7031v-23.922h7.7031v3.5c0.9375-1.3516 2.0156-2.3672 3.2344-3.0469 1.2188-0.6875 2.5547-1.0312 4.0156-1.0312 1.6562 0 3.1133 0.40234 4.375 1.2031 1.2695 0.79297 2.2344 1.9062 2.8906 3.3438z"/>
  </symbol>
  <symbol id="n" overflow="visible">
   <path d="m3.6719-33.234h7.6562v18.094l8.7969-8.7812h8.8906l-11.688 10.969 12.594 12.953h-9.2656l-9.3281-9.9688v9.9688h-7.6562z"/>
  </symbol>
  <symbol id="m" overflow="visible">
   <path d="m3.6719-23.922h7.6562v23.922h-7.6562zm0-9.3125h7.6562v6.2344h-7.6562z"/>
  </symbol>
  <symbol id="l" overflow="visible">
   <path d="m4.0156-31.891h9.1875l11.594 21.875v-21.875h7.7969v31.891h-9.1875l-11.594-21.875v21.875h-7.7969z"/>
  </symbol>
  <symbol id="k" overflow="visible">
   <path d="m27.734-14.562v14.562h-7.7031v-11.156c0-2.0625-0.046875-3.4844-0.14062-4.2656-0.085937-0.78125-0.24219-1.3594-0.46875-1.7344-0.30469-0.5-0.71094-0.88281-1.2188-1.1562-0.51172-0.28125-1.0938-0.42188-1.75-0.42188-1.5938 0-2.8516 0.61719-3.7656 1.8438-0.90625 1.2305-1.3594 2.9375-1.3594 5.125v11.766h-7.6562v-23.922h7.6562v3.5c1.1445-1.3945 2.3633-2.4219 3.6562-3.0781 1.3008-0.66406 2.7383-1 4.3125-1 2.7578 0 4.8516 0.85156 6.2812 2.5469 1.4375 1.6875 2.1562 4.1523 2.1562 7.3906z"/>
  </symbol>
  <symbol id="j" overflow="visible">
   <path d="m11.328-3.4531v12.547h-7.6562v-33.016h7.6562v3.5c1.0508-1.3945 2.2188-2.4219 3.5-3.0781 1.2812-0.66406 2.7539-1 4.4219-1 2.9453 0 5.3672 1.1719 7.2656 3.5156 1.8945 2.3438 2.8438 5.3594 2.8438 9.0469s-0.94922 6.7031-2.8438 9.0469c-1.8984 2.3438-4.3203 3.5156-7.2656 3.5156-1.668 0-3.1406-0.33594-4.4219-1s-2.4492-1.6914-3.5-3.0781zm5.0781-15.5c-1.6367 0-2.8906 0.60547-3.7656 1.8125-0.875 1.1992-1.3125 2.9336-1.3125 5.2031 0 2.2617 0.4375 3.9961 1.3125 5.2031 0.875 1.1992 2.1289 1.7969 3.7656 1.7969 1.6328 0 2.8828-0.59766 3.75-1.7969 0.86328-1.1953 1.2969-2.9297 1.2969-5.2031 0-2.2812-0.43359-4.0195-1.2969-5.2188-0.86719-1.1953-2.1172-1.7969-3.75-1.7969z"/>
  </symbol>
 </defs>
 <g>
  <path d="m131.25 481.25h17.5v17.5h-17.5z"/>
  <path d="m166.25 481.25h52.5v17.5h-52.5z"/>
  <path d="m315 481.25h35v17.5h-35z"/>
  <path d="m402.5 481.25h17.5v17.5h-17.5z"/>
  <path d="m481.25 481.25h52.5v17.5h-52.5z"/>
  <path d="m533.75 516.25h52.5v17.5h-52.5z"/>
  <path d="m498.75 516.25h17.5v17.5h-17.5z"/>
  <path d="m411.25 516.25h35v17.5h-35z"/>
  <path d="m227.5 516.25h52.5v17.5h-52.5z"/>
  <path d="m192.5 516.25h17.5v17.5h-17.5z"/>
  <path d="m494.38 244.56c6.5898-1.1289 12.504-4.7266 16.539-10.062l45.586 45.676c1.6641 1.6172 3.8906 2.5273 6.2109 2.5352 2.2969-0.007813 4.4961-0.91797 6.125-2.5352 5.7734-5.9922 8.8438-14.086 8.4883-22.402 0.085937-19.164-12.602-43.75-33.074-64.227-3.5859-3.5-7.2617-6.7383-10.938-9.8008l70.438 0.003906c2.3203 0 4.5469-0.92188 6.1875-2.5625s2.5625-3.8672 2.5625-6.1875c0-24.938-33.863-43.75-78.75-43.75-4.8828-0.007812-9.7617 0.25781-14.613 0.78906l49.789-49.789c3.3906-3.4141 3.3906-8.9258 0-12.336-5.9922-5.7734-14.086-8.8438-22.402-8.4883h-0.085938c-19.074 0-43.664 12.688-64.137 33.074-3.4531 3.4766-6.7227 7.125-9.8008 10.938-3.0781-3.8125-6.3477-7.4609-9.8008-10.938-20.477-20.387-45.062-33.074-64.137-33.074h-0.085938c-8.3164-0.35547-16.41 2.7148-22.402 8.4883-3.3906 3.4102-3.3906 8.9219 0 12.336l49.875 49.789c-4.8125-0.4375-9.7109-0.78906-14.699-0.78906-21.531-0.83594-42.844 4.6055-61.336 15.664-0.52734-44.781-23.801-86.215-61.766-109.96-37.965-23.75-85.402-26.555-125.9-7.4453-40.5 19.113-68.492 57.516-74.293 101.92-5.8008 44.406 11.387 88.711 45.617 117.59 34.23 28.871 80.797 38.348 123.59 25.148 42.789-13.203 75.926-47.266 87.941-90.406h66.586c-3.6758 3.0625-7.3516 6.3008-10.938 9.8008-20.477 20.477-33.164 45.062-33.074 64.227v-0.003906c-0.35547 8.3164 2.7148 16.41 8.4883 22.402 1.6289 1.6172 3.8281 2.5273 6.125 2.5352 2.3203-0.007813 4.5469-0.91797 6.2109-2.5352l45.586-45.676c4.0352 5.3359 9.9492 8.9336 16.539 10.062l-12.602 201.69h-117.6c8.3789-19.312 12.496-40.203 12.074-61.25 0-49.875-18.812-87.5-43.75-87.5-17.762 0-32.637 19.25-39.551 49.086-7.3516-11.926-17.66-21.75-29.926-28.523-6.9375-3.5273-14.996-4.1562-22.398-1.75-7.2227 2.832-12.973 8.4883-15.926 15.664-8.6641 18.461-6.8242 49.699 4.7266 81.461 4.1484 11.48 9.5156 22.48 16.012 32.812h-114.19v17.5h525v-17.5h-105.52zm-275.62 17.938c-30.168 0-59.102-11.984-80.434-33.316-21.332-21.332-33.316-50.266-33.316-80.434s11.984-59.102 33.316-80.434c21.332-21.332 50.266-33.316 80.434-33.316s59.102 11.984 80.434 33.316c21.332 21.332 33.316 50.266 33.316 80.434-0.027344 30.16-12.02 59.078-33.348 80.402-21.324 21.328-50.242 33.32-80.402 33.348zm70 52.5c5.1641 0 11.375 6.3008 16.449 17.5h-32.988c4.9023-11.113 11.027-17.5 16.539-17.5zm-91.961 24.414c1.0508-2.9297 3.2227-5.3203 6.0352-6.6523 3.0469-0.83984 6.3008-0.39453 9.0117 1.2266 4.7109 2.3984 8.9531 5.6289 12.516 9.5352l-30.977 11.289c0.25781-5.2891 1.4102-10.496 3.4141-15.398zm63.086 106.84h-6.3867l-24.414-67.199-16.449 5.9492 22.227 61.25h-11.727c-8.9453-11.77-16.027-24.84-21-38.762-4.0664-11.051-6.8555-22.531-8.3125-34.215l42-15.312c6.4492 9.8438 11.707 20.418 15.664 31.5 7.0938 18.043 9.9688 37.469 8.3984 56.789zm40.426 0h-2.8008v-78.75h-17.5v78.75h-2.5391c1.4531-21.359-1.8047-42.773-9.5352-62.738-1.4883-4.1133-3.1484-8.0508-4.8125-11.988 0.55078-7.2422 1.6328-14.438 3.2383-21.523h44.711c2.707 11.469 4.0312 23.219 3.9375 35 0 25.199-5.6875 48.562-14.699 61.25zm259.52-188.48v0.96094l-44.012-44.012v0.003906c-0.75781-4.9961-2.957-9.6641-6.332-13.426-3.3711-3.7617-7.7695-6.457-12.656-7.75 1.2578-3.1172 1.9141-6.4414 1.9258-9.8008h2.4492c11.402 5.6094 21.758 13.125 30.625 22.227 17.062 16.973 28.09 37.359 28 51.797zm-26.074-109.02c26.863 0 48.477 8.1367 57.137 17.5h-98.961c-2.1914-2.4062-4.8008-4.3906-7.6992-5.8633 15.207-8.1367 32.281-12.152 49.523-11.637zm-53.988-23.887c4.4102-6.4414 9.418-12.445 14.965-17.938 16.977-17.062 37.273-28 51.711-28h1.0508l-60.812 60.812c-4.9297 1.9141-9.625 4.3789-14 7.3477-1.0508-0.69922-2.2734-1.3125-3.3242-2.0117 2.5742-7.1602 6.0742-13.957 10.41-20.211zm-7.2617 50.137c3.5391 0 6.7305 2.1328 8.082 5.4023 1.3555 3.2695 0.60938 7.0312-1.8945 9.5352s-6.2656 3.25-9.5352 1.8945c-3.2695-1.3516-5.4023-4.543-5.4023-8.082 0-4.832 3.918-8.75 8.75-8.75zm-74.988-96.074h1.0508c14.438 0 34.738 10.938 51.711 28 4.2344 4.2031 8.125 8.7383 11.641 13.562-2.9727 4.8164-5.5195 9.8789-7.6133 15.137zm-43.398 87.324c8.6641-9.3633 30.273-17.5 57.137-17.5 16.828-0.44141 33.496 3.3516 48.477 11.023-0.35156 0.61328-0.69922 1.1367-1.0508 1.75-2.0781 1.3086-3.9648 2.8984-5.6016 4.7266zm75.074 48.477-44.012 44.012v-0.96094c-0.085937-14.438 10.938-34.824 28-51.801 8.8672-9.1016 19.223-16.617 30.625-22.227h2.4492c0.011719 3.3594 0.66797 6.6836 1.9258 9.8008-4.8867 1.293-9.2852 3.9883-12.656 7.75-3.375 3.7617-5.5742 8.4297-6.332 13.426zm17.062 4.0234c0-3.5391 2.1328-6.7305 5.4023-8.082 3.2695-1.3555 7.0312-0.60938 9.5352 1.8945s3.25 6.2656 1.8945 9.5352c-1.3516 3.2695-4.543 5.4023-8.082 5.4023-4.832 0-8.75-3.918-8.75-8.75zm9.2734 227.5 12.863-205.01c1.4766-0.87109 2.8555-1.8984 4.1133-3.0625 1.2578 1.1641 2.6367 2.1914 4.1133 3.0625l12.863 205.01zm25.727-227.5c0-3.5391 2.1328-6.7305 5.4023-8.082 3.2695-1.3555 7.0312-0.60938 9.5352 1.8945s3.25 6.2656 1.8945 9.5352c-1.3516 3.2695-4.543 5.4023-8.082 5.4023-4.832 0-8.75-3.918-8.75-8.75z"/>
  <path d="m218.75 52.5c-25.527 0-50.008 10.141-68.059 28.191-18.051 18.051-28.191 42.531-28.191 68.059s10.141 50.008 28.191 68.059c18.051 18.051 42.531 28.191 68.059 28.191s50.008-10.141 68.059-28.191c18.051-18.051 28.191-42.531 28.191-68.059-0.03125-25.52-10.18-49.98-28.223-68.027-18.047-18.043-42.508-28.191-68.027-28.223zm78.234 105c-1.6523 14.766-7.4648 28.758-16.766 40.348l-11.969-11.969-12.371 12.371 11.969 11.969c-11.59 9.3008-25.582 15.113-40.348 16.766v-16.984h-17.5v16.984c-14.766-1.6523-28.758-7.4648-40.348-16.766l11.969-11.969-12.371-12.371-11.969 11.969c-9.3008-11.59-15.113-25.582-16.766-40.348h16.984v-17.5h-16.984c1.6523-14.766 7.4648-28.758 16.766-40.348l11.969 11.969 12.371-12.371-11.969-11.969c11.59-9.3008 25.582-15.113 40.348-16.766v16.984h17.5v-16.984c14.766 1.6523 28.758 7.4648 40.348 16.766l-11.969 11.969 12.371 12.371 11.969-11.969c9.3008 11.59 15.113 25.582 16.766 40.348h-16.984v17.5z"/>
  <path d="m210 145.13-14.938 14.938 12.371 12.371 17.5-17.5h0.003906c1.6406-1.6406 2.5625-3.8672 2.5625-6.1875v-43.75h-17.5z"/>
  <use x="70" y="691.25" xlink:href="#p"/>
  <use x="102.109375" y="691.25" xlink:href="#c"/>
  <use x="123.683594" y="691.25" xlink:href="#a"/>
  <use x="153.355469" y="691.25" xlink:href="#i"/>
  <use x="182.878906" y="691.25" xlink:href="#b"/>
  <use x="203.792969" y="691.25" xlink:href="#a"/>
  <use x="233.464844" y="691.25" xlink:href="#h"/>
  <use x="280.011719" y="691.25" xlink:href="#g"/>
  <use x="311.328125" y="691.25" xlink:href="#f"/>
  <use x="355.078125" y="691.25" xlink:href="#e"/>
  <use x="388.980469" y="691.25" xlink:href="#d"/>
  <use x="419.039062" y="691.25" xlink:href="#o"/>
  <use x="464.625" y="691.25" xlink:href="#n"/>
  <use x="493.722656" y="691.25" xlink:href="#c"/>
  <use x="515.296875" y="691.25" xlink:href="#m"/>
  <use x="530.292969" y="691.25" xlink:href="#b"/>
  <use x="566.4375" y="691.25" xlink:href="#l"/>
  <use x="603.054687" y="691.25" xlink:href="#d"/>
  <use x="633.109375" y="691.25" xlink:href="#a"/>
  <use x="662.78125" y="691.25" xlink:href="#k"/>
  <use x="693.929687" y="691.25" xlink:href="#j"/>
 </g>
 
</svg>
