<?xml version="1.0" encoding="utf-8"?>
<!-- Generator: Adobe Illustrator 24.0.0, SVG Export Plug-In . SVG Version: 6.00 Build 0)  -->
<svg version="1.1" id="Layer_1" xmlns="http://www.w3.org/2000/svg" xmlns:xlink="http://www.w3.org/1999/xlink" x="0px" y="0px"
	 viewBox="0 0 600 200" style="enable-background:new 0 0 600 200;" xml:space="preserve">
<style type="text/css">
	.st0{fill:#FFFFFF;}
	.st1{clip-path:url(#SVGID_2_);fill:url(#SVGID_3_);}
	.st2{clip-path:url(#SVGID_5_);fill:url(#SVGID_6_);}
	.st3{fill:#EC1C24;}
	.st4{fill:url(#SVGID_7_);}
</style>
<g>
	<g>
		
			<image style="overflow:visible;opacity:0.4;" width="631" height="221" xlink:href="6EAD42AFC55C2E89.png"  transform="matrix(1 0 0 1 -12.1552 -7.1552)">
		</image>
		<g>
			<g>
				<path class="st0" d="M298.1,5.5C186.7,5.5,75.6,17.9,0.4,38v123.7c75.4,20.4,185.4,33,297.7,33c113.1,0,226.4-12.7,301.9-33.3
					V38.9C524.5,18.2,411.1,5.5,298.1,5.5"/>
			</g>
		</g>
	</g>
	<g>
		<defs>
			<path id="SVGID_1_" d="M15.2,47.6v104.5c71.7,17.2,176.2,27.8,283,27.8c107.5,0,215.3-10.7,287.1-28.2V48.4
				c-71.8-17.4-179.6-28.2-287.1-28.2C192.2,20.2,86.7,30.6,15.2,47.6"/>
		</defs>
		<clipPath id="SVGID_2_">
			<use xlink:href="#SVGID_1_"  style="overflow:visible;"/>
		</clipPath>
		
			<linearGradient id="SVGID_3_" gradientUnits="userSpaceOnUse" x1="-286.9005" y1="1158.5535" x2="-284.8637" y2="1158.5535" gradientTransform="matrix(0 -78.4059 -78.4059 0 91137.6719 -22314.7793)">
			<stop  offset="0" style="stop-color:#005C36"/>
			<stop  offset="0.181" style="stop-color:#007941"/>
			<stop  offset="0.4001" style="stop-color:#00A551"/>
			<stop  offset="0.9971" style="stop-color:#00A551"/>
		</linearGradient>
		<rect x="15.2" y="20.2" class="st1" width="570.1" height="159.7"/>
	</g>
	<g>
		<defs>
			<path id="SVGID_4_" d="M30.2,61.7v77.7c70.5,15.6,163.8,24.8,268.5,24.8c105.4,0,201.1-10,271.6-25.7V62.3
				C499.8,46.5,404.1,36,298.7,36C194.8,36,100.3,46.3,30.2,61.7"/>
		</defs>
		<clipPath id="SVGID_5_">
			<use xlink:href="#SVGID_4_"  style="overflow:visible;"/>
		</clipPath>
		
			<linearGradient id="SVGID_6_" gradientUnits="userSpaceOnUse" x1="-283.803" y1="1156.839" x2="-281.7662" y2="1156.839" gradientTransform="matrix(0 -62.9291 -62.9291 0 73099.0859 -17695.3145)">
			<stop  offset="0" style="stop-color:#00703F"/>
			<stop  offset="0.2947" style="stop-color:#00A551"/>
			<stop  offset="0.85" style="stop-color:#00A961"/>
			<stop  offset="0.9249" style="stop-color:#34AF72"/>
			<stop  offset="1" style="stop-color:#FFFFFF"/>
		</linearGradient>
		<rect x="30.2" y="36" class="st2" width="540.1" height="128.2"/>
	</g>
	<path class="st0" d="M295.8,106.3c-3.8,0-6.9-3-6.9-6.6c0-3.6,3.1-6.6,6.9-6.6c3.8,0,6.9,3,6.9,6.6
		C302.7,103.3,299.6,106.3,295.8,106.3"/>
	<g>
		<path class="st0" d="M85.8,99.9c0,7.4-0.9,12.7-2.7,15.8c-1.8,3.1-4.5,4.6-8.3,4.6c-4.6,0-7.6-1.5-9-4.5c-1.3-3-2-8.3-2-15.9v-1.6
			c0-8.3,0.8-13.8,2.3-16.6c1.6-2.8,4.4-4.2,8.6-4.2c4.2,0,7.1,1.4,8.6,4.3c1.6,2.8,2.3,8.3,2.3,16.4V99.9z M94.1,119.3
			c3.5-4.8,5.3-11,5.3-18.7v-3.1c0-8.7-2.1-15.5-6.3-20.5c-4.2-5-10.2-7.5-18.2-7.5c-7.5,0-13.5,2.6-17.9,7.6
			c-4.4,5.1-6.6,11.9-6.6,20.4v3.1c0,6.6,1.4,12.2,4.1,16.9c2.7,4.6,7.5,7.9,14.1,9.8c0.2,3.4,1.5,6.4,3.9,9c2.5,2.6,6,3.9,10.7,3.9
			H95v-6.7h-2.4H88c-2.7,0-4.6-0.5-5.6-1.5c-1-1-1.6-2.6-1.7-4.8C86,126.7,90.5,124.1,94.1,119.3"/>
		<path class="st0" d="M145.8,110.9c0,5.4-1.7,9.6-5.2,12.6c-3.5,3-8.8,4.5-16.1,4.5c-7.8,0-13.4-1.6-16.8-4.9
			c-3.4-3.3-5.1-8.1-5.1-14.5V70.3h11.7v39.9c0,3.1,0.7,5.4,2.2,7c1.5,1.5,4,2.3,7.7,2.3c3.4,0,5.8-0.7,7.4-2.1
			c1.6-1.4,2.5-3.9,2.5-7.4V70.3h11.8V110.9z"/>
		<polygon class="st0" points="189.1,78.8 165.1,78.8 165.1,94.1 189,94.1 189,102.7 165.1,102.7 165.1,118.8 189.1,118.8 
			189.1,127.3 151.7,127.3 151.7,70.3 189.1,70.3 		"/>
		<g>
			<path class="st0" d="M402.9,110.9c0,5.4-1.7,9.6-5.2,12.6c-3.5,3-8.8,4.5-16.1,4.5c-7.8,0-13.4-1.6-16.8-4.9
				c-3.4-3.3-5.1-8.1-5.1-14.5V70.3h11.7v39.9c0,3.1,0.7,5.4,2.2,7c1.5,1.5,4,2.3,7.7,2.3c3.4,0,5.8-0.7,7.5-2.1
				c1.6-1.4,2.5-3.9,2.5-7.4V70.3h11.8V110.9z"/>
		</g>
		<polygon class="st0" points="446.2,78.8 422.2,78.8 422.2,94.1 446.1,94.1 446.1,102.7 422.2,102.7 422.2,118.8 446.2,118.8 
			446.2,127.3 408.7,127.3 408.7,70.3 446.2,70.3 		"/>
		<path class="st0" d="M476.5,86.9c0,2.2-0.7,3.9-2.1,5c-1.4,1.1-3.7,1.7-6.9,1.7h-3.6V78.4h4.4c2.7,0,4.7,0.5,6.1,1.6
			c1.4,1.1,2.1,2.8,2.1,5.3V86.9z M487.8,105.9c-2.3-4.6-5.9-7.6-10.6-8.9c4.2-0.4,7.3-1.5,9.4-3.5c2.1-2,3.1-4.6,3.1-7.8v-3.1
			c0-3.5-1.2-6.4-3.6-8.7c-2.4-2.4-6.4-3.6-12.2-3.6h-23.5v57h13.5v-25.6h3.2c3.7,0,6.5,2,8.2,5.9c1.7,3.9,2.7,10.5,2.8,19.7h13.3
			C491.4,117.6,490.2,110.5,487.8,105.9"/>
		<path class="st0" d="M527.7,99.9c0,7.3-0.9,12.5-2.6,15.6c-1.7,3.2-4.5,4.7-8.4,4.7c-4.7,0-7.7-1.5-9-4.4
			c-1.3-2.9-1.9-8.3-1.9-16.1v-1.4c0-7.8,0.7-13.2,2.1-16.2c1.5-3,4.4-4.5,8.8-4.5c4.8,0,7.8,1.7,9.1,5.1c1.3,3.4,1.9,8.6,1.9,15.6
			V99.9z M535.1,77.4c-4.1-5.3-10.1-7.9-18-7.9c-8.1,0-14.3,2.6-18.5,7.8c-4.2,5.2-6.3,12-6.3,20.2v3.3c0,8.9,2.3,15.7,6.8,20.4
			c4.5,4.7,10.4,7.1,17.7,7.1c7.4,0,13.3-2.4,17.8-7.1c4.5-4.7,6.7-11.6,6.7-20.6v-3.1C541.2,89.4,539.2,82.7,535.1,77.4"/>
		<path class="st0" d="M219.4,86.9c0,2.2-0.7,3.9-2.1,5c-1.4,1.1-3.7,1.7-6.9,1.7h-3.7V78.4h4.4c2.7,0,4.7,0.5,6.1,1.6
			c1.4,1.1,2.1,2.8,2.1,5.3V86.9z M230.8,105.9c-2.4-4.6-5.9-7.6-10.6-8.9c4.2-0.4,7.3-1.5,9.4-3.5c2.1-2,3.1-4.6,3.1-7.8v-3.1
			c0-3.5-1.2-6.4-3.6-8.7c-2.4-2.4-6.4-3.6-12.2-3.6h-23.5v57h13.5v-25.6h3.2c3.7,0,6.5,2,8.2,5.9c1.7,3.9,2.7,10.5,2.8,19.7h13.3
			C234.3,117.6,233.1,110.5,230.8,105.9"/>
		<path class="st0" d="M270.6,99.9c0,7.3-0.9,12.5-2.6,15.6c-1.7,3.2-4.5,4.7-8.4,4.7c-4.7,0-7.7-1.5-9-4.4s-1.9-8.3-1.9-16.1v-1.4
			c0-7.8,0.7-13.2,2.1-16.2c1.4-3,4.4-4.5,8.8-4.5c4.8,0,7.8,1.7,9.1,5.1c1.3,3.4,1.9,8.6,1.9,15.6V99.9z M278,77.4
			c-4.1-5.3-10.1-7.9-18-7.9c-8.1,0-14.3,2.6-18.5,7.8c-4.2,5.2-6.3,12-6.3,20.2v3.3c0,8.9,2.3,15.7,6.8,20.4
			c4.5,4.7,10.4,7.1,17.7,7.1c7.4,0,13.3-2.4,17.8-7.1c4.5-4.7,6.7-11.6,6.7-20.6v-3.1C284.2,89.4,282.1,82.7,278,77.4"/>
		<path class="st0" d="M342.8,99.9c0,7.4-0.9,12.7-2.7,15.8c-1.8,3.1-4.5,4.6-8.3,4.6c-4.6,0-7.6-1.5-9-4.5c-1.3-3-2-8.3-2-15.9
			v-1.6c0-8.3,0.8-13.8,2.3-16.6c1.6-2.8,4.4-4.2,8.6-4.2c4.2,0,7.1,1.4,8.6,4.3c1.6,2.8,2.3,8.3,2.3,16.4V99.9z M351.1,119.3
			c3.5-4.8,5.3-11,5.3-18.7v-3.1c0-8.7-2.1-15.5-6.3-20.5c-4.2-5-10.3-7.5-18.2-7.5c-7.5,0-13.5,2.6-17.9,7.6
			c-4.4,5.1-6.6,11.9-6.6,20.4v3.1c0,6.6,1.4,12.2,4.1,16.9c2.7,4.6,7.5,7.9,14.1,9.8c0.2,3.4,1.5,6.4,3.9,9c2.5,2.6,6,3.9,10.7,3.9
			h11.9v-6.7h-2.4H345c-2.8,0-4.6-0.5-5.6-1.5c-1-1-1.6-2.6-1.7-4.8C343.1,126.7,347.6,124.1,351.1,119.3"/>
		<path class="st3" d="M295.8,104.9c-3,0-5.4-2.3-5.4-5.2c0-2.9,2.4-5.2,5.4-5.2c3,0,5.4,2.3,5.4,5.2
			C301.2,102.5,298.8,104.9,295.8,104.9"/>
	</g>
	<g>
		<polygon class="st0" points="257.6,58.5 257.6,42 262,42 262,54.7 269.4,54.7 269.4,58.5 		"/>
		<g>
			<path class="st0" d="M277,58.1c-1-0.5-1.8-1.1-2.4-1.9c-0.7-0.8-1.1-1.7-1.5-2.7c-0.3-1-0.5-2.1-0.5-3.3c0-1.2,0.2-2.3,0.5-3.3
				c0.3-1,0.8-1.9,1.5-2.7c0.7-0.8,1.5-1.4,2.5-1.8c1-0.5,2.1-0.7,3.4-0.7c1.3,0,2.4,0.2,3.4,0.7c1,0.5,1.8,1.1,2.5,1.8
				c0.7,0.8,1.2,1.7,1.5,2.7c0.3,1,0.5,2.1,0.5,3.3c0,1.2-0.2,2.3-0.5,3.3c-0.3,1-0.8,1.9-1.5,2.7c-0.7,0.8-1.5,1.4-2.5,1.9
				c-1,0.5-2.1,0.7-3.4,0.7C279.1,58.8,278,58.6,277,58.1 M277.9,53.7c0.3,0.4,0.6,0.8,1.1,1c0.4,0.2,0.9,0.4,1.4,0.4
				c0.5,0,1-0.1,1.4-0.4c0.4-0.2,0.8-0.6,1-1c0.3-0.4,0.5-1,0.6-1.6c0.1-0.6,0.2-1.2,0.2-1.9c0-0.7-0.1-1.3-0.2-1.9
				c-0.1-0.6-0.4-1.1-0.6-1.5c-0.3-0.4-0.6-0.8-1-1c-0.4-0.2-0.9-0.4-1.4-0.4c-0.5,0-1,0.1-1.4,0.4c-0.4,0.3-0.8,0.6-1,1
				c-0.3,0.4-0.5,0.9-0.6,1.5c-0.1,0.6-0.2,1.2-0.2,1.9c0,0.7,0.1,1.3,0.2,1.9C277.4,52.8,277.6,53.3,277.9,53.7"/>
			<path class="st0" d="M290.8,59.2c0.9-0.2,1.5-0.5,1.9-0.9c0.4-0.4,0.6-0.9,0.6-1.6l0-14.7l4.4,0l0,15c0,0.8-0.1,1.5-0.4,2.2
				c-0.3,0.6-0.7,1.2-1.2,1.6c-0.5,0.5-1.2,0.8-1.9,1.1c-0.7,0.3-1.6,0.5-2.5,0.7L290.8,59.2z"/>
		</g>
		<path class="st0" d="M301,58.5l6.4-16.5l4.1,0l6.4,16.5l-4.7,0l-1.1-2.8l-5.5,0l-1.1,2.8L301,58.5z M307.6,52.3l3.6,0l-1.8-5
			L307.6,52.3z"/>
		<g>
			<path class="st0" d="M324,53.6c0.4,0.5,0.9,0.9,1.5,1.2c0.6,0.4,1.3,0.5,2.1,0.5c0.6,0,1.1-0.1,1.5-0.3c0.4-0.2,0.6-0.5,0.6-1
				c0-0.2,0-0.4-0.1-0.6c-0.1-0.2-0.2-0.4-0.5-0.5c-0.2-0.2-0.6-0.3-1-0.5c-0.4-0.2-1-0.4-1.7-0.6c-0.8-0.3-1.5-0.5-2.1-0.8
				c-0.6-0.3-1.2-0.6-1.6-1c-0.5-0.4-0.8-0.9-1-1.4c-0.2-0.5-0.4-1.2-0.4-1.9c0-0.8,0.1-1.4,0.4-2c0.3-0.6,0.7-1.1,1.3-1.6
				c0.6-0.4,1.2-0.8,2-1c0.8-0.2,1.7-0.4,2.6-0.4c0.8,0,1.6,0.1,2.2,0.3c0.6,0.2,1.2,0.4,1.7,0.6c0.5,0.3,0.9,0.6,1.3,0.9
				c0.4,0.3,0.7,0.7,0.9,1l-3,2.3c-0.1-0.2-0.3-0.4-0.5-0.6c-0.2-0.2-0.4-0.4-0.7-0.6c-0.3-0.2-0.6-0.3-0.9-0.4
				c-0.4-0.1-0.7-0.2-1.1-0.2c-0.7,0-1.2,0.1-1.5,0.3c-0.3,0.2-0.5,0.5-0.5,0.9c0,0.2,0,0.4,0.1,0.6c0.1,0.2,0.3,0.3,0.5,0.5
				c0.3,0.2,0.6,0.3,1,0.5c0.4,0.2,1,0.3,1.6,0.5c0.8,0.2,1.5,0.5,2.1,0.8c0.6,0.3,1.2,0.6,1.6,1c0.5,0.4,0.8,0.9,1.1,1.5
				c0.3,0.6,0.4,1.3,0.4,2.1c0,0.9-0.2,1.6-0.5,2.3c-0.4,0.6-0.8,1.2-1.4,1.6c-0.6,0.4-1.3,0.7-2.1,0.9c-0.8,0.2-1.6,0.3-2.5,0.3
				c-1.5,0-2.8-0.3-3.9-0.8c-1.1-0.5-2-1.2-2.6-2.1L324,53.6z"/>
		</g>
	</g>
	<linearGradient id="SVGID_7_" gradientUnits="userSpaceOnUse" x1="21.496" y1="100.1091" x2="578.7981" y2="100.1091">
		<stop  offset="0" style="stop-color:#EA2127"/>
		<stop  offset="1" style="stop-color:#FBED1D"/>
	</linearGradient>
	<path class="st4" d="M297.9,173.2c-92.7,0-195.7-10.6-275.6-28.4l-0.8-0.2V55l0.8-0.2C101.5,37.4,204.5,27,297.9,27h0.5
		C410.4,27,516.3,41.8,578,55.7l0.8,0.2v89.3l-0.8,0.2C501.3,162.5,393.9,173.2,297.9,173.2z M23.5,143.1
		c79.6,17.6,182.1,28.2,274.3,28.2c95.6,0,202.3-10.6,278.9-27.7v-86C515,43.7,409.8,29,298.4,29h-0.5C205,29,102.5,39.3,23.5,56.6
		V143.1z"/>
</g>
</svg>
